<svg width="17" height="23" viewBox="0 0 17 23" fill="none" xmlns="http://www.w3.org/2000/svg">
<path fill-rule="evenodd" clip-rule="evenodd" d="M9.72119 9.12248V0.491614C9.72119 0.220246 9.94894 0 10.2296 0H14.3494C14.63 0 14.8578 0.220246 14.8578 0.491614V3.1474C14.8578 3.41877 14.63 3.63901 14.3494 3.63901H10.7379V9.1225C10.7379 9.39387 10.5101 9.61412 10.2295 9.61412C9.94892 9.61412 9.72119 9.39385 9.72119 9.12248ZM10.7379 0.982195V2.65468H13.8411V0.982195H10.7379ZM6.21647 15.1368H0.508367C0.227752 15.1368 0 14.9166 0 14.6452V8.53547C0 7.67316 0.353835 6.84627 0.98524 6.23666C1.61563 5.62704 2.4707 5.28388 3.36239 5.28388H8.70531V6.26711H5.77109C6.38217 6.87378 6.72481 7.68788 6.72481 8.53544V14.1536H15.9832V8.94346C15.9832 7.48236 14.9533 6.26704 13.6376 6.26704H11.7556V5.28381H13.6376C15.4739 5.28381 17 6.90517 17 8.94341V14.6451C17 14.9165 16.7722 15.1367 16.4916 15.1367L6.21647 15.1368ZM3.36242 6.26709C2.74018 6.26709 2.14334 6.50601 1.7041 6.93175C1.26385 7.35749 1.01679 7.93466 1.01679 8.53542V14.1536H5.70899V8.53542C5.70899 7.93368 5.46192 7.35651 5.02167 6.93175C4.58142 6.50601 3.98458 6.26709 3.36336 6.26709H3.36242ZM10.0526 16.1192V22.5084C10.0526 22.7798 9.82484 23 9.54422 23H7.45583C7.17521 23 6.94746 22.7798 6.94746 22.5084V16.1192H7.9642V22.0168H9.03585V16.1192H10.0526Z" fill="black"/>
</svg>
