<svg width="24" height="24" viewBox="0 0 24 24" fill="none" xmlns="http://www.w3.org/2000/svg">
<path d="M1.5 5H22.5" stroke="black" stroke-width="1.5" stroke-linecap="round"/>
<path d="M16 7.5C17.3807 7.5 18.5 6.38071 18.5 5C18.5 3.61929 17.3807 2.5 16 2.5C14.6193 2.5 13.5 3.61929 13.5 5C13.5 6.38071 14.6193 7.5 16 7.5Z" fill="white" stroke="black" stroke-width="1.5"/>
<path d="M1.5 12H22.5" stroke="black" stroke-width="1.5" stroke-linecap="round"/>
<path d="M8 14.5C9.38071 14.5 10.5 13.3807 10.5 12C10.5 10.6193 9.38071 9.5 8 9.5C6.61929 9.5 5.5 10.6193 5.5 12C5.5 13.3807 6.61929 14.5 8 14.5Z" fill="white" stroke="black" stroke-width="1.5"/>
<path d="M1.5 19H22.5" stroke="black" stroke-width="1.5" stroke-linecap="round"/>
<path d="M16 21.5C17.3807 21.5 18.5 20.3807 18.5 19C18.5 17.6193 17.3807 16.5 16 16.5C14.6193 16.5 13.5 17.6193 13.5 19C13.5 20.3807 14.6193 21.5 16 21.5Z" fill="white" stroke="black" stroke-width="1.5"/>
</svg>
