<svg width="684" height="105" viewBox="0 0 684 105" fill="none" xmlns="http://www.w3.org/2000/svg">
<path d="M73.3851 103.68C72.5567 103.68 71.8851 103.009 71.8851 102.18V8.66338C71.8851 7.83495 72.5567 7.16338 73.3851 7.16338H139.945C140.774 7.16338 141.445 7.83495 141.445 8.66338V26.7765C141.445 27.6049 140.774 28.2765 139.945 28.2765H99.5881C98.7596 28.2765 98.0881 28.9481 98.0881 29.7765V43.3654C98.0881 44.1938 98.7596 44.8654 99.5881 44.8654H136.364C137.192 44.8654 137.864 45.5369 137.864 46.3654V64.4785C137.864 65.3069 137.192 65.9785 136.364 65.9785H99.5881C98.7596 65.9785 98.0881 66.6501 98.0881 67.4785V81.0674C98.0881 81.8958 98.7596 82.5674 99.5881 82.5674H139.757C140.585 82.5674 141.257 83.2389 141.257 84.0674V102.18C141.257 103.009 140.585 103.68 139.757 103.68H73.3851Z" fill="black"/>
<path d="M181.021 104.623C175.868 104.623 171.124 103.272 166.788 100.57C162.484 97.868 159.028 93.768 156.42 88.2698C153.844 82.7715 152.556 75.8438 152.556 67.4866C152.556 58.7523 153.907 51.6517 156.609 46.1849C159.342 40.7182 162.861 36.7123 167.165 34.1674C171.501 31.6226 176.057 30.3501 180.832 30.3501C184.414 30.3501 187.556 30.9785 190.258 32.2352C192.96 33.4605 195.222 35.11 197.044 37.1836C198.831 39.186 200.195 41.3847 201.136 43.7797C201.169 43.8658 201.252 43.9228 201.345 43.9228C201.468 43.9228 201.568 43.8228 201.568 43.6993V8.66338C201.568 7.83495 202.24 7.16338 203.068 7.16338H226.083C226.911 7.16338 227.583 7.83495 227.583 8.66338V102.18C227.583 103.009 226.911 103.68 226.083 103.68H203.257C202.428 103.68 201.757 103.009 201.757 102.18V92.1428C201.757 91.9559 201.605 91.8043 201.418 91.8043C201.281 91.8043 201.157 91.8874 201.104 92.0139C200.103 94.3805 198.687 96.5099 196.856 98.4022C195.002 100.319 192.74 101.842 190.069 102.974C187.43 104.073 184.414 104.623 181.021 104.623ZM190.635 84.641C193.022 84.641 195.065 83.9498 196.761 82.5674C198.489 81.1535 199.809 79.1742 200.72 76.6293C201.663 74.053 202.134 71.0054 202.134 67.4866C202.134 63.9049 201.663 60.8416 200.72 58.2967C199.809 55.7204 198.489 53.7568 196.761 52.4058C195.065 51.0234 193.022 50.3322 190.635 50.3322C188.247 50.3322 186.205 51.0234 184.508 52.4058C182.843 53.7568 181.555 55.7204 180.644 58.2967C179.764 60.8416 179.324 63.9049 179.324 67.4866C179.324 71.0683 179.764 74.1473 180.644 76.7236C181.555 79.2684 182.843 81.2321 184.508 82.6145C186.205 83.9655 188.247 84.641 190.635 84.641Z" fill="black"/>
<path d="M241.854 103.68C241.026 103.68 240.354 103.009 240.354 102.18V32.7927C240.354 31.9642 241.026 31.2927 241.854 31.2927H264.869C265.697 31.2927 266.369 31.9642 266.369 32.7927V102.18C266.369 103.009 265.697 103.68 264.869 103.68H241.854Z" fill="black"/>
<path d="M304.138 7.16338C304.966 7.16338 305.638 7.83495 305.638 8.66338V102.18C305.638 103.009 304.966 103.68 304.138 103.68H281.123C280.295 103.68 279.623 103.009 279.623 102.18V8.66338C279.623 7.83495 280.295 7.16338 281.123 7.16338H304.138Z" fill="black"/>
<path d="M365.831 72.0108V32.7927C365.831 31.9642 366.503 31.2927 367.331 31.2927H390.346C391.174 31.2927 391.846 31.9642 391.846 32.7927V102.18C391.846 103.009 391.174 103.68 390.346 103.68H368.651C367.822 103.68 367.151 103.009 367.151 102.18V90.3586C367.151 90.1159 366.954 89.9192 366.711 89.9192C366.523 89.9192 366.356 90.0394 366.293 90.2168C364.707 94.6932 361.992 98.2071 358.149 100.759C354.222 103.335 349.556 104.623 344.153 104.623C339.094 104.623 334.664 103.46 330.863 101.136C327.092 98.8106 324.155 95.6059 322.05 91.5215C319.976 87.4372 318.924 82.7559 318.892 77.4776V32.7927C318.892 31.9642 319.564 31.2927 320.392 31.2927H343.407C344.235 31.2927 344.907 31.9642 344.907 32.7927V72.0108C344.938 75.5925 345.849 78.4044 347.64 80.4466C349.462 82.4888 352.007 83.5099 355.275 83.5099C357.442 83.5099 359.312 83.0544 360.883 82.1432C362.485 81.2007 363.71 79.8811 364.559 78.1845C365.438 76.4565 365.863 74.3986 365.831 72.0108Z" fill="black"/>
<path d="M406.577 103.68C405.748 103.68 405.077 103.009 405.077 102.18V32.7927C405.077 31.9642 405.748 31.2927 406.577 31.2927H428.271C429.1 31.2927 429.771 31.9642 429.771 32.7927V44.6157C429.771 44.8577 429.968 45.0539 430.21 45.0539C430.398 45.0539 430.565 44.9327 430.627 44.7546C432.148 40.3714 434.691 36.8895 438.254 34.3088C441.899 31.6697 446.235 30.3501 451.262 30.3501C456.351 30.3501 460.734 31.7011 464.41 34.4031C467.978 36.9947 470.169 40.4149 470.984 44.6636C471.028 44.8885 471.223 45.0539 471.452 45.0539C471.663 45.0539 471.848 44.9126 471.908 44.7101C473.171 40.4398 475.746 37.0042 479.632 34.4031C483.622 31.7011 488.304 30.3501 493.676 30.3501C500.62 30.3501 506.244 32.5808 510.548 37.0422C514.884 41.5036 517.052 47.4417 517.052 54.8564V102.18C517.052 103.009 516.38 103.68 515.552 103.68H492.537C491.709 103.68 491.037 103.009 491.037 102.18V61.4543C491.037 58.281 490.236 55.799 488.634 54.0081C487.031 52.1858 484.879 51.2747 482.177 51.2747C479.507 51.2747 477.386 52.1858 475.815 54.0081C474.275 55.799 473.506 58.281 473.506 61.4543V102.18C473.506 103.009 472.834 103.68 472.006 103.68H450.122C449.294 103.68 448.622 103.009 448.622 102.18V61.4543C448.622 58.281 447.821 55.799 446.219 54.0081C444.617 52.1858 442.464 51.2747 439.762 51.2747C437.972 51.2747 436.432 51.6832 435.144 52.5C433.856 53.3169 432.85 54.4951 432.128 56.0346C431.437 57.5427 431.091 59.3492 431.091 61.4543V102.18C431.091 103.009 430.419 103.68 429.591 103.68H406.577Z" fill="black"/>
<path d="M564.568 105C556.839 105 550.178 103.523 544.586 100.57C539.025 97.5853 534.736 93.3124 531.72 87.7514C528.735 82.1589 527.243 75.4668 527.243 67.6751C527.243 60.1975 528.751 53.6625 531.767 48.07C534.783 42.4776 539.04 38.1261 544.539 35.0157C550.037 31.9053 556.525 30.3501 564.002 30.3501C569.469 30.3501 574.417 31.1984 578.847 32.895C583.277 34.5916 587.063 37.0579 590.205 40.294C593.347 43.4987 595.766 47.3946 597.463 51.9816C599.159 56.5687 600.008 61.737 600.008 67.4866V72.0189C600.008 72.8473 599.336 73.5189 598.508 73.5189H536.849C536.02 73.5189 535.349 72.8473 535.349 72.0189V60.6921C535.349 59.8637 536.02 59.1921 536.849 59.1921H574.544C575.381 59.1921 576.069 58.5035 575.948 57.6749C575.735 56.2176 575.241 54.9011 574.465 53.7253C573.459 52.123 572.093 50.882 570.365 50.0023C568.668 49.0911 566.736 48.6356 564.568 48.6356C562.463 48.6356 560.531 49.0911 558.771 50.0023C557.012 50.882 555.598 52.1073 554.53 53.6782C553.493 55.2491 552.943 57.0871 552.88 59.1921V74.65C552.88 76.9749 553.367 79.0485 554.341 80.8708C555.315 82.693 556.713 84.1226 558.536 85.1594C560.358 86.1962 562.557 86.7146 565.133 86.7146C566.924 86.7146 568.558 86.4633 570.035 85.9606C571.543 85.4579 572.831 84.7352 573.899 83.7927C574.707 83.0561 575.353 82.2117 575.838 81.2595C576.122 80.701 576.671 80.3053 577.298 80.3053H598.244C599.169 80.3053 599.876 81.1346 599.676 82.0373C598.725 86.3419 596.903 90.1317 594.211 93.4066C591.163 97.0826 587.126 99.9417 582.099 101.984C577.104 103.995 571.26 105 564.568 105Z" fill="black"/>
<path d="M636.638 62.9623V102.18C636.638 103.009 635.966 103.68 635.138 103.68H612.123C611.295 103.68 610.623 103.009 610.623 102.18V32.7927C610.623 31.9642 611.295 31.2927 612.123 31.2927H633.818C634.646 31.2927 635.318 31.9642 635.318 32.7927V44.6141C635.318 44.857 635.515 45.0539 635.758 45.0539C635.946 45.0539 636.113 44.934 636.176 44.7569C637.763 40.3113 640.494 36.8129 644.367 34.2617C648.357 31.654 653.007 30.3501 658.316 30.3501C663.437 30.3501 667.883 31.5283 671.653 33.8847C675.455 36.2096 678.393 39.4143 680.466 43.4987C682.571 47.5831 683.608 52.2487 683.577 57.4955V102.18C683.577 103.009 682.905 103.68 682.077 103.68H659.062C658.234 103.68 657.562 103.009 657.562 102.18V62.9623C657.594 59.3806 656.682 56.5687 654.829 54.5265C653.007 52.4843 650.462 51.4632 647.194 51.4632C645.058 51.4632 643.188 51.9345 641.586 52.8771C640.015 53.7882 638.805 55.1078 637.957 56.8358C637.109 58.5323 636.669 60.5745 636.638 62.9623Z" fill="black"/>
<path d="M253.361 23.7523C249.843 23.7523 246.826 22.5898 244.313 20.2648C241.799 17.9399 240.543 15.1436 240.543 11.8761C240.543 8.60862 241.799 5.81239 244.313 3.48743C246.826 1.16248 249.843 0 253.361 0C256.912 0 259.928 1.16248 262.41 3.48743C264.923 5.81239 266.18 8.60863 266.18 11.8761C266.18 15.1436 264.923 17.9399 262.41 20.2648C259.928 22.5898 256.912 23.7523 253.361 23.7523Z" fill="#F2B705"/>
<path d="M26.3833 103.681C25.5549 103.681 24.8833 103.009 24.8833 102.181V8.66355C24.8833 7.83512 25.5549 7.16355 26.3833 7.16355H35.7622C36.5906 7.16355 37.2622 7.83512 37.2622 8.66355V28.2767V44.8655V65.9787V82.5675V102.181C37.2622 103.009 36.5906 103.681 35.7622 103.681H26.3833Z" fill="#00D084"/>
<path d="M1.49998 103.68C0.671559 103.68 3.09593e-08 103.009 6.91498e-08 102.18L4.38033e-06 8.66354C4.41852e-06 7.83512 0.671577 7.16355 1.5 7.16355H14.0418C14.8702 7.16355 15.5418 7.83512 15.5418 8.66355V28.2767V44.8655V65.9787V82.5675V102.181C15.5418 103.009 14.8702 103.681 14.0418 103.681L1.49998 103.68Z" fill="#00D084"/>
<path d="M48.5018 103.681C47.6734 103.681 47.0018 103.009 47.0018 102.181V8.66355C47.0018 7.83512 47.6734 7.16355 48.5018 7.16355H51.0314C51.8599 7.16355 52.5314 7.83512 52.5314 8.66355V28.2767V44.8655V65.9787V82.5675V102.181C52.5314 103.009 51.8599 103.681 51.0314 103.681H48.5018Z" fill="#00D084"/>
</svg>
